# xmcd
#
# Track frame offsets: 
#        150
#        21767
#        35189
#        75083
#        90808
#        104551
#        120953
#        140302
#        153899
#        165772
#        179889
#        218652
#        246963
#        264431
#        291881
#        305113
#        316762
#        334685
#
# Disc length: 4630 seconds
#
# Revision: 5
# Processed by: cddbd v1.5.2PL0 Copyright (c) Steve Scherf et al.
# Submitted via: ExactAudioCopyFreeDBPlugin 1.0
#
DISCID=e6121412
DTITLE=Taj Mahal - The Essential Taj Mahal CD1
DYEAR=2005
DGENRE=Blues
TTITLE0=Leaving Trunk
TTITLE1=Statesboro Blues
TTITLE2=The Celebrated Walkin' Blues
TTITLE3=She Caught The Katy (And Left Me a Mule To Ride)
TTITLE4=Corinna
TTITLE5=Going Up To The Country, Paint My Mailbox Blue
TTITLE6=Take a Giant Step
TTITLE7=Six Days On The Road
TTITLE8=Country Blues #1
TTITLE9=Fishin' Blues
TTITLE10=Ain't Gwine Whistle Dixie (Anymo')
TTITLE11=You're Gonna Need Somebody On Your Bond
TTITLE12=Happy To Be Just Like I Am
TTITLE13=West Indian Revelation
TTITLE14=Texas Woman Blues
TTITLE15=Cakewalk Into Town
TTITLE16=Frankie and Albert
TTITLE17=Railroad Bill
EXTD=
EXTT0=
EXTT1=
EXTT2=
EXTT3=
EXTT4=
EXTT5=
EXTT6=
EXTT7=
EXTT8=
EXTT9=
EXTT10=
EXTT11=
EXTT12=
EXTT13=
EXTT14=
EXTT15=
EXTT16=
EXTT17=
PLAYORDER=
